<!-- icon666.com - MILLIONS OF FREE VECTOR ICONS --><svg id="svg1144" enable-background="new 0 0 512 512" viewBox="0 0 512 512" xmlns="http://www.w3.org/2000/svg" xmlns:svg="http://www.w3.org/2000/svg"><g id="layer2"><path id="path828" d="m56.372.606c-30.709 0-55.9 24.837-55.9 55.9s25.19 55.931 55.9 55.931h399.57c30.709 0 55.9-24.785 55.9-55.931s-25.19-55.9-55.9-55.9h-399.57zm0 199.723c-30.709 0-55.9 24.941-55.9 55.9s25.19 56.056 55.9 56.056h399.57c30.709 0 55.9-24.817 55.9-56.056s-25.19-55.9-55.9-55.9zm0 199.816c-30.709 0-55.9 24.785-55.9 55.931s25.19 55.9 55.9 55.9h399.57c30.709 0 55.9-24.837 55.9-55.9s-25.19-55.931-55.9-55.931z" fill="#000000" style="fill: rgb(20, 161, 1);"></path></g></svg>